<svg width="72" height="72" viewBox="0 0 72 72" fill="none" xmlns="http://www.w3.org/2000/svg">
<path d="M30.4691 23.4241C31.4931 23.4241 32.3251 23.3121 32.9651 23.0881C33.6371 22.8641 34.1811 22.5601 34.5971 22.1761C35.0131 21.7921 35.3491 21.3441 35.6051 20.8321C35.8611 20.3201 36.0851 19.7761 36.2771 19.2001H39.8291V52.8001H34.5491V27.1681H30.4691V23.4241Z" fill="#E25E5E"/>
<path d="M70 36C70 54.7777 54.7777 70 36 70C17.2223 70 2 54.7777 2 36C2 17.2223 17.2223 2 36 2C54.7777 2 70 17.2223 70 36Z" stroke="#E25E5E" stroke-width="4"/>
</svg>
