<svg width="72" height="72" viewBox="0 0 72 72" fill="none" xmlns="http://www.w3.org/2000/svg">
<path d="M38.8881 27.4563C38.8881 25.9523 38.6321 24.9443 38.1201 24.4323C37.6401 23.8883 36.9841 23.6163 36.1521 23.6163C35.3201 23.6163 34.6481 23.8723 34.1361 24.3843C33.6561 24.8643 33.4161 25.7123 33.4161 26.9283V30.5283H28.4241V27.2643C28.4241 24.5443 29.0801 22.4643 30.3921 21.0243C31.7361 19.5523 33.7041 18.8163 36.2961 18.8163C38.8881 18.8163 40.8401 19.5523 42.1521 21.0243C43.4961 22.4643 44.1681 24.5443 44.1681 27.2643C44.1681 29.0883 43.8801 30.7363 43.3041 32.2083C42.7601 33.6803 42.0721 35.0243 41.2401 36.2403C40.4081 37.4563 39.5121 38.5763 38.5521 39.6003C37.5921 40.5923 36.7281 41.5523 35.9601 42.4803C35.1921 43.3763 34.5841 44.2723 34.1361 45.1683C33.6881 46.0643 33.5441 47.0083 33.7041 48.0003H43.6881V52.8003H28.4241V48.6723C28.4241 47.0403 28.6801 45.6003 29.1921 44.3523C29.7041 43.1043 30.3441 41.9683 31.1121 40.9443C31.9121 39.8883 32.7601 38.9123 33.6561 38.0163C34.5521 37.0883 35.3841 36.1123 36.1521 35.0883C36.9521 34.0643 37.6081 32.9443 38.1201 31.7283C38.6321 30.5123 38.8881 29.0883 38.8881 27.4563Z" fill="#E25E5E"/>
<path d="M70 36C70 54.7777 54.7777 70 36 70C17.2223 70 2 54.7777 2 36C2 17.2223 17.2223 2 36 2C54.7777 2 70 17.2223 70 36Z" stroke="#E25E5E" stroke-width="4"/>
</svg>
