<svg width="72" height="72" viewBox="0 0 72 72" fill="none" xmlns="http://www.w3.org/2000/svg">
<path d="M39.7796 27.4563C39.7796 25.9523 39.5236 24.9443 39.0116 24.4323C38.5316 23.8883 37.8756 23.6163 37.0436 23.6163C36.2116 23.6163 35.5396 23.8723 35.0276 24.3843C34.5476 24.8643 34.3076 25.7123 34.3076 26.9283V29.0883H29.3156V27.2643C29.3156 24.5443 29.9716 22.4643 31.2836 21.0243C32.6276 19.5523 34.5956 18.8163 37.1876 18.8163C39.7796 18.8163 41.7316 19.5523 43.0436 21.0243C44.3876 22.4643 45.0596 24.5443 45.0596 27.2643V28.1283C45.0596 31.7123 43.8276 34.0163 41.3636 35.0403C42.7076 35.6163 43.6516 36.5123 44.1956 37.7283C44.7716 38.9123 45.0596 40.3683 45.0596 42.0963V44.7363C45.0596 47.4563 44.3876 49.5523 43.0436 51.0243C41.7316 52.4643 39.7796 53.1843 37.1876 53.1843C34.5956 53.1843 32.6276 52.4643 31.2836 51.0243C29.9716 49.5523 29.3156 47.4563 29.3156 44.7363V41.9523H34.3076V45.0723C34.3076 46.2883 34.5476 47.1523 35.0276 47.6643C35.5396 48.1443 36.2116 48.3843 37.0436 48.3843C37.8756 48.3843 38.5316 48.1283 39.0116 47.6163C39.5236 47.1043 39.7796 46.0963 39.7796 44.5923V41.9523C39.7796 40.3843 39.5076 39.2803 38.9636 38.6403C38.4196 38.0003 37.5396 37.6803 36.3236 37.6803H34.5476V32.8803H36.6116C37.6036 32.8803 38.3716 32.6243 38.9156 32.1123C39.4916 31.6003 39.7796 30.6723 39.7796 29.3283V27.4563Z" fill="#E25E5E"/>
<circle cx="36" cy="36" r="34" stroke="#E25E5E" stroke-width="4"/>
</svg>
