<svg width="88" height="88" viewBox="0 0 88 88" fill="none" xmlns="http://www.w3.org/2000/svg">
<circle cx="44" cy="44" r="41.5" stroke="#E25E5E" stroke-width="5"/>
<path d="M46.48 32.32C46.48 30.44 46.16 29.18 45.52 28.54C44.92 27.86 44.1 27.52 43.06 27.52C42.02 27.52 41.18 27.84 40.54 28.48C39.94 29.08 39.64 30.14 39.64 31.66V36.16H33.4V32.08C33.4 28.68 34.22 26.08 35.86 24.28C37.54 22.44 40 21.52 43.24 21.52C46.48 21.52 48.92 22.44 50.56 24.28C52.24 26.08 53.08 28.68 53.08 32.08C53.08 34.36 52.72 36.42 52 38.26C51.32 40.1 50.46 41.78 49.42 43.3C48.38 44.82 47.26 46.22 46.06 47.5C44.86 48.74 43.78 49.94 42.82 51.1C41.86 52.22 41.1 53.34 40.54 54.46C39.98 55.58 39.8 56.76 40 58H52.48V64H33.4V58.84C33.4 56.8 33.72 55 34.36 53.44C35 51.88 35.8 50.46 36.76 49.18C37.76 47.86 38.82 46.64 39.94 45.52C41.06 44.36 42.1 43.14 43.06 41.86C44.06 40.58 44.88 39.18 45.52 37.66C46.16 36.14 46.48 34.36 46.48 32.32Z" fill="#E25E5E"/>
</svg>
