<svg width="88" height="88" viewBox="0 0 88 88" fill="none" xmlns="http://www.w3.org/2000/svg">
<circle cx="44" cy="44" r="41.5" stroke="#E25E5E" stroke-width="5"/>
<path d="M46.12 32.32C46.12 30.44 45.8 29.18 45.16 28.54C44.56 27.86 43.74 27.52 42.7 27.52C41.66 27.52 40.82 27.84 40.18 28.48C39.58 29.08 39.28 30.14 39.28 31.66V34.36H33.04V32.08C33.04 28.68 33.86 26.08 35.5 24.28C37.18 22.44 39.64 21.52 42.88 21.52C46.12 21.52 48.56 22.44 50.2 24.28C51.88 26.08 52.72 28.68 52.72 32.08V33.16C52.72 37.64 51.18 40.52 48.1 41.8C49.78 42.52 50.96 43.64 51.64 45.16C52.36 46.64 52.72 48.46 52.72 50.62V53.92C52.72 57.32 51.88 59.94 50.2 61.78C48.56 63.58 46.12 64.48 42.88 64.48C39.64 64.48 37.18 63.58 35.5 61.78C33.86 59.94 33.04 57.32 33.04 53.92V50.44H39.28V54.34C39.28 55.86 39.58 56.94 40.18 57.58C40.82 58.18 41.66 58.48 42.7 58.48C43.74 58.48 44.56 58.16 45.16 57.52C45.8 56.88 46.12 55.62 46.12 53.74V50.44C46.12 48.48 45.78 47.1 45.1 46.3C44.42 45.5 43.32 45.1 41.8 45.1H39.58V39.1H42.16C43.4 39.1 44.36 38.78 45.04 38.14C45.76 37.5 46.12 36.34 46.12 34.66V32.32Z" fill="#E25E5E"/>
</svg>
